<svg width="106" height="107" viewBox="0 0 106 107" fill="none" xmlns="http://www.w3.org/2000/svg">
<rect y="0.5" width="106" height="106" rx="24" fill="#3461FF"/>
<g clip-path="url(#clip0_1_860)">
<path fill-rule="evenodd" clip-rule="evenodd" d="M36.8999 74.1H69.1C71.6898 74.1 73.5298 72.9707 74.6476 71.4182C75.678 69.9853 76 68.3362 76 67.2V53.4C76 52.79 75.7577 52.205 75.3263 51.7736C74.895 51.3423 74.31 51.1 73.7 51.1H66.8V39.6C66.8 37.77 66.073 36.0149 64.779 34.7209C63.485 33.4269 61.73 32.7 59.9 32.7H36.8999C35.0699 32.7 33.3149 33.4269 32.0209 34.7209C30.7269 36.0149 29.9999 37.77 29.9999 39.6V67.2C29.9999 68.3339 30.3219 69.9853 31.3523 71.4182C32.4701 72.973 34.3101 74.1 36.8999 74.1ZM69.1 55.7C69.71 55.7 70.295 55.9423 70.7263 56.3737C71.1577 56.805 71.4 57.39 71.4 58V67.2C71.4 67.81 71.1577 68.395 70.7263 68.8264C70.295 69.2577 69.71 69.5 69.1 69.5C68.49 69.5 67.905 69.2577 67.4736 68.8264C67.0423 68.395 66.8 67.81 66.8 67.2V58C66.8 57.39 67.0423 56.805 67.4736 56.3737C67.905 55.9423 68.49 55.7 69.1 55.7ZM46.0999 48.8C46.0999 48.19 46.3423 47.605 46.7736 47.1736C47.2049 46.7423 47.7899 46.5 48.3999 46.5C49.0099 46.5 49.5949 46.7423 50.0263 47.1736C50.4576 47.605 50.6999 48.19 50.6999 48.8C50.6999 49.41 50.4576 49.995 50.0263 50.4263C49.5949 50.8577 49.0099 51.1 48.3999 51.1C47.7899 51.1 47.2049 50.8577 46.7736 50.4263C46.3423 49.995 46.0999 49.41 46.0999 48.8ZM48.3999 41.9C46.5699 41.9 44.8149 42.6269 43.5209 43.9209C42.2269 45.2149 41.4999 46.97 41.4999 48.8C41.4999 50.63 42.2269 52.385 43.5209 53.679C44.8149 54.973 46.5699 55.7 48.3999 55.7C50.2299 55.7 51.985 54.973 53.279 53.679C54.573 52.385 55.2999 50.63 55.2999 48.8C55.2999 46.97 54.573 45.2149 53.279 43.9209C51.985 42.6269 50.2299 41.9 48.3999 41.9ZM41.4999 60.3C40.8899 60.3 40.3049 60.5423 39.8736 60.9737C39.4422 61.405 39.1999 61.99 39.1999 62.6C39.1999 63.21 39.4422 63.795 39.8736 64.2264C40.3049 64.6577 40.8899 64.9 41.4999 64.9H55.2999C55.9099 64.9 56.495 64.6577 56.9263 64.2264C57.3576 63.795 57.6 63.21 57.6 62.6C57.6 61.99 57.3576 61.405 56.9263 60.9737C56.495 60.5423 55.9099 60.3 55.2999 60.3H41.4999Z" fill="white"/>
</g>
<defs>
<clipPath id="clip0_1_860">
<rect width="46" height="46" fill="white" transform="translate(30 30.5)"/>
</clipPath>
</defs>
</svg>
