<svg width="106" height="107" viewBox="0 0 106 107" fill="none" xmlns="http://www.w3.org/2000/svg">
<rect y="0.5" width="106" height="106" rx="24" fill="#3461FF"/>
<path d="M54.15 35.1C53.845 35.1 53.5525 35.2211 53.3368 35.4368C53.1212 35.6525 53 35.945 53 36.25V42.23C53 45.3971 55.1321 48.0628 58.037 48.877C57.531 55.179 55.7094 59.8825 54.2167 62.7828C54.6399 63.2796 55.0378 63.6499 55.3483 63.9098C56.542 64.908 57.6 66.5341 57.6 68.5627C57.6015 69.7636 57.2178 70.9333 56.5052 71.9H69.1C70.015 71.9 70.8925 71.5365 71.5395 70.8895C72.1865 70.2425 72.55 69.365 72.55 68.45V67.7439C72.55 66.9435 72.2763 66.2052 71.8554 65.6003C70.6134 63.8132 67.0967 58.0333 66.3607 48.8747C67.8104 48.4683 69.0875 47.599 69.9973 46.3994C70.9071 45.1998 71.3997 43.7356 71.4 42.23V36.25C71.4 35.945 71.2788 35.6525 71.0632 35.4368C70.8475 35.2211 70.555 35.1 70.25 35.1H68.525C68.0675 35.1 67.6287 35.2817 67.3052 35.6052C66.9817 35.9287 66.8 36.3675 66.8 36.825V38.55C66.8003 38.701 66.7709 38.8506 66.7133 38.9902C66.6558 39.1299 66.5714 39.2568 66.4648 39.3638C66.2496 39.5799 65.9573 39.7017 65.6523 39.7023C65.3473 39.7029 65.0546 39.5823 64.8385 39.3671C64.6224 39.1518 64.5006 38.8596 64.5 38.5546V38.55L64.4908 36.8158C64.4884 36.3599 64.3056 35.9235 63.9823 35.602C63.6591 35.2804 63.2217 35.1 62.7658 35.1H61.6342C61.1783 35.1 60.7409 35.2804 60.4177 35.602C60.0944 35.9235 59.9116 36.3599 59.9092 36.8158L59.9 38.5546C59.8994 38.8596 59.7776 39.1518 59.5615 39.3671C59.3454 39.5823 59.0527 39.7029 58.7477 39.7023C58.4427 39.7017 58.1504 39.5799 57.9352 39.3638C57.72 39.1477 57.5994 38.855 57.6 38.55V36.825C57.6 36.3675 57.4183 35.9287 57.0948 35.6052C56.7713 35.2817 56.3325 35.1 55.875 35.1H54.15ZM44.95 42C43.618 42 42.3145 42.3856 41.1968 43.1101C40.0792 43.8346 39.1951 44.8672 38.6513 46.0831C38.1075 47.2991 37.9273 48.6464 38.1325 49.9625C38.3376 51.2786 38.9192 52.5072 39.8072 53.5H39.2C38.59 53.5 38.005 53.7423 37.5737 54.1736C37.1423 54.605 36.9 55.19 36.9 55.8C36.9 56.41 37.1423 56.995 37.5737 57.4263C38.005 57.8577 38.59 58.1 39.2 58.1H40.396C39.5404 62.2354 37.2841 64.6228 36.026 65.6739C35.2302 66.3409 34.6 67.3667 34.6 68.5627C34.6 70.405 36.095 71.9 37.9373 71.9H51.965C53.805 71.9 55.3 70.405 55.3 68.5627C55.3 67.3667 54.6698 66.3409 53.874 65.6739C52.6159 64.6228 50.3596 62.2354 49.504 58.1H50.7C51.31 58.1 51.895 57.8577 52.3263 57.4263C52.7577 56.995 53 56.41 53 55.8C53 55.19 52.7577 54.605 52.3263 54.1736C51.895 53.7423 51.31 53.5 50.7 53.5H50.0928C50.9808 52.5072 51.5624 51.2786 51.7675 49.9625C51.9727 48.6464 51.7924 47.2991 51.2487 46.0831C50.7049 44.8672 49.8208 43.8346 48.7032 43.1101C47.5855 42.3856 46.282 42 44.95 42Z" fill="white"/>
</svg>
