<svg width="106" height="107" viewBox="0 0 106 107" fill="none" xmlns="http://www.w3.org/2000/svg">
<rect y="0.5" width="106" height="106" rx="24" fill="#3461FF"/>
<path d="M64.5 34.8125C64.5005 34.5278 64.4165 34.2494 64.2586 34.0125C64.1006 33.7757 63.8759 33.591 63.613 33.482C63.35 33.373 63.0605 33.3445 62.7814 33.4002C62.5022 33.4559 62.2458 33.5932 62.0448 33.7948L56.2948 39.5448C56.1613 39.6785 56.0556 39.8372 55.9836 40.0119C55.9116 40.1865 55.8747 40.3736 55.875 40.5625V48.5924L53.7446 50.7199C53.3185 50.6068 52.872 50.593 52.4397 50.6797C52.0073 50.7663 51.6007 50.951 51.251 51.2196C50.9013 51.4882 50.6179 51.8335 50.4227 52.2288C50.2275 52.6242 50.1257 53.0591 50.125 53.5C50.1252 53.9092 50.2127 54.3136 50.3817 54.6862C50.5507 55.0588 50.7973 55.3911 51.105 55.6607C51.4127 55.9304 51.7744 56.1313 52.1659 56.25C52.5575 56.3687 52.9699 56.4025 53.3755 56.3491C53.7812 56.2956 54.1707 56.1562 54.5182 55.9402C54.8656 55.7241 55.163 55.4364 55.3903 55.0962C55.6177 54.756 55.7698 54.3712 55.8365 53.9676C55.9032 53.5639 55.883 53.1506 55.7773 52.7554L57.9076 50.625H65.9375C66.1264 50.6253 66.3135 50.5884 66.4881 50.5164C66.6628 50.4444 66.8215 50.3387 66.9553 50.2053L72.7052 44.4553C72.9068 44.2542 73.0441 43.9978 73.0998 43.7187C73.1555 43.4395 73.127 43.15 73.018 42.8871C72.909 42.6241 72.7243 42.3994 72.4875 42.2415C72.2506 42.0835 71.9722 41.9995 71.6875 42H64.5V34.8125ZM70.089 51.1368C70.5837 54.7166 69.9416 58.3614 68.2533 61.5567C66.5651 64.752 63.9159 67.3364 60.6798 68.945C57.4437 70.5536 53.784 71.1053 50.2175 70.522C46.651 69.9388 43.3578 68.2502 40.8026 65.6946C38.2475 63.1389 36.5595 59.8453 35.977 56.2787C35.3944 52.7121 35.9468 49.0526 37.556 45.8168C39.1653 42.581 41.7502 39.9323 44.9458 38.2446C48.1414 36.557 51.7864 35.9156 55.3661 36.411L54.265 37.5121C53.8641 37.9125 53.546 38.388 53.329 38.9114C53.1119 39.4348 53.0001 39.9959 53 40.5625C50.4412 40.5625 47.9399 41.3213 45.8123 42.7429C43.6847 44.1645 42.0265 46.185 41.0473 48.549C40.0681 50.9131 39.8119 53.5144 40.3111 56.024C40.8103 58.5336 42.0425 60.8389 43.8518 62.6482C45.6611 64.4575 47.9664 65.6897 50.476 66.1889C52.9856 66.6881 55.5869 66.4319 57.951 65.4527C60.315 64.4735 62.3355 62.8153 63.7571 60.6877C65.1787 58.5601 65.9375 56.0588 65.9375 53.5C67.0809 53.499 68.177 53.044 68.985 52.235L70.089 51.1368ZM53 43.4375C51.0098 43.4375 49.0643 44.0277 47.4096 45.1333C45.7548 46.239 44.4651 47.8106 43.7035 49.6493C42.9419 51.4879 42.7426 53.5112 43.1308 55.4631C43.5191 57.415 44.4775 59.208 45.8847 60.6153C47.292 62.0225 49.085 62.9809 51.0369 63.3692C52.9888 63.7574 55.0121 63.5582 56.8508 62.7965C58.6894 62.0349 60.261 60.7452 61.3667 59.0904C62.4723 57.4357 63.0625 55.4902 63.0625 53.5H59.0979L58.7385 53.8594C58.6694 54.9639 58.283 56.025 57.6258 56.9153C56.9685 57.8056 56.0683 58.4874 55.0331 58.8787C53.998 59.2701 52.8719 59.3544 51.79 59.1216C50.7081 58.8888 49.7164 58.3487 48.9339 57.5661C48.1513 56.7836 47.6113 55.7919 47.3784 54.71C47.1456 53.6281 47.2299 52.502 47.6213 51.4669C48.0126 50.4317 48.6944 49.5315 49.5847 48.8743C50.475 48.217 51.5361 47.8306 52.6406 47.7615L53 47.4021V43.4375Z" fill="white"/>
</svg>
