<svg width="106" height="107" viewBox="0 0 106 107" fill="none" xmlns="http://www.w3.org/2000/svg">
<rect y="0.5" width="106" height="106" rx="24" fill="#3461FF"/>
<path d="M72.2841 47.75L47.25 72.7823C46.983 73.0493 46.6661 73.2611 46.3172 73.4057C45.9683 73.5502 45.5944 73.6246 45.2168 73.6246C44.8392 73.6246 44.4653 73.5502 44.1165 73.4057C43.7676 73.2611 43.4507 73.0493 43.1837 72.7823L33.7159 63.3163C33.4489 63.0493 33.2371 62.7324 33.0925 62.3835C32.948 62.0347 32.8736 61.6608 32.8736 61.2832C32.8736 60.9056 32.948 60.5316 33.0925 60.1828C33.2371 59.8339 33.4489 59.517 33.7159 59.25L38.9574 54.0085C39.0242 53.9417 39.1034 53.8887 39.1907 53.8525C39.278 53.8163 39.3715 53.7977 39.4659 53.7977C39.5604 53.7977 39.6539 53.8163 39.7412 53.8525C39.8284 53.8887 39.9077 53.9417 39.9745 54.0085L46.233 60.267C46.3727 60.4067 46.5398 60.5161 46.7237 60.5883C46.9076 60.6605 47.1044 60.694 47.3019 60.6868C47.4993 60.6795 47.6932 60.6316 47.8713 60.5461C48.0494 60.4606 48.208 60.3393 48.3371 60.1898C48.5732 59.905 48.6932 59.5417 48.6732 59.1723C48.6532 58.8029 48.4947 58.4547 48.2293 58.197L42.0067 51.9744C41.8723 51.8397 41.7968 51.6572 41.7968 51.4668C41.7968 51.2765 41.8723 51.094 42.0067 50.9592L44.702 48.2639C44.7688 48.1971 44.8481 48.1441 44.9353 48.1079C45.0226 48.0717 45.1161 48.0531 45.2105 48.0531C45.305 48.0531 45.3985 48.0717 45.4858 48.1079C45.573 48.1441 45.6523 48.1971 45.7191 48.2639L51.9776 54.5224C52.1173 54.6621 52.2844 54.7714 52.4683 54.8437C52.6522 54.9159 52.849 54.9494 53.0465 54.9422C53.2439 54.9349 53.4378 54.887 53.6159 54.8015C53.794 54.716 53.9526 54.5947 54.0817 54.4451C54.3178 54.1604 54.4378 53.797 54.4178 53.4277C54.3979 53.0583 54.2393 52.7101 53.9739 52.4524L47.7585 46.2244C47.6241 46.0897 47.5486 45.9072 47.5486 45.7168C47.5486 45.5265 47.6241 45.344 47.7585 45.2092L50.4538 42.5139C50.5886 42.3795 50.7711 42.304 50.9614 42.304C51.1518 42.304 51.3343 42.3795 51.4691 42.5139L57.7276 48.7724C57.8674 48.9124 58.0345 49.022 58.2186 49.0944C58.4027 49.1668 58.5997 49.2004 58.7974 49.1931C58.9951 49.1859 59.1891 49.1379 59.3674 49.0522C59.5457 48.9665 59.7044 48.845 59.8335 48.6951C60.0694 48.4102 60.1891 48.0467 60.1688 47.6773C60.1484 47.308 59.9896 46.9598 59.7239 46.7024L53.5085 40.4744C53.3741 40.3397 53.2986 40.1572 53.2986 39.9668C53.2986 39.7765 53.3741 39.594 53.5085 39.4592L58.75 34.2177C59.017 33.9507 59.3339 33.7389 59.6828 33.5943C60.0317 33.4498 60.4056 33.3754 60.7832 33.3754C61.1608 33.3754 61.5347 33.4498 61.8835 33.5943C62.2324 33.7389 62.5494 33.9507 62.8163 34.2177L72.2841 43.6837C72.5511 43.9506 72.7629 44.2676 72.9075 44.6165C73.052 44.9653 73.1264 45.3392 73.1264 45.7168C73.1264 46.0944 73.052 46.4683 72.9075 46.8172C72.7629 47.166 72.5511 47.483 72.2841 47.75Z" fill="white"/>
</svg>
